<?xml version="1.0" standalone="no"?><!DOCTYPE svg PUBLIC "-//W3C//DTD SVG 1.1//EN" "http://www.w3.org/Graphics/SVG/1.1/DTD/svg11.dtd"><svg class="icon" width="200px" height="200.00px" viewBox="0 0 1024 1024" version="1.1" xmlns="http://www.w3.org/2000/svg"><path d="M535.239887 0h69.599248v238.178739h361.241768c24.082785-1.204139 56.233302 5.779868 55.751646 36.124177 4.455315 150.637817 0 301.636877 2.047037 452.395108 0 26.611477 0 68.635936-36.124177 68.997178-127.638758 4.575729-255.638758 0-383.277516 1.806209V1023.518344h-72.248354C355.341486 991.006585 177.610536 960.662277 0 928.752587V95.488241C178.453434 63.458137 356.906867 32.511759 535.239887 0z" fill="#0071C5" /><path d="M604.959548 273.821261H992.210724a58.64158 58.64158 0 0 1-19.747883 40.699906q-115.597366 110.660395-230.713076 221.32079C695.510818 493.697084 650.235183 448.903104 604.959548 405.433678zM249.377234 317.411101c65.625588-25.286924 142.329257 10.235183 170.144873 75.138288 38.0508 89.106303 32.511759 211.446849-42.867356 278.999059-69.478833 60.206961-185.919097 26.250235-217.467545-60.206962-41.663217-99.702728-21.433678-253.110066 90.190028-293.930385z" fill="#FFFFFF" /><path d="M778.355597 546.438382c70.080903-68.033866 140.643462-135.586077 210.965193-203.138288v418.799624H604.959548V450.709313c43.469426 39.254939 82.363123 84.289746 128.481656 120.413923 19.145814 3.010348 32.030103-13.727187 44.914393-24.684854z" fill="#FFFFFF" /><path d="M260.696143 389.057385a63.698965 63.698965 0 0 1 84.289746 31.548448 212.891816 212.891816 0 0 1 7.947319 154.370649c-10.837253 35.401693-48.165569 64.541863-85.253057 50.573847-45.757291-14.690499-59.604892-70.201317-60.206962-113.670743s9.271872-101.147695 53.222954-122.822201z" fill="#0071C5" /></svg>